# xmcd
#
# Track frame offsets: 
#        150
#        14192
#        27006
#        43688
#        57200
#        67786
#        79675
#        92301
#        106552
#        118451
#        130607
#        142856
#        151817
#        164456
#        181625
#        194700
#        205896
#        217434
#        227564
#
# Disc length: 3349 seconds
#
# Revision: 1
# Processed by: cddbd v1.5.2PL0 Copyright (c) Steve Scherf et al.
# Submitted via: ExactAudioCopy v1.3
#
DISCID=fb0d1313
DTITLE=Martin Denny - The Best of Martin Denny's Exotica
DYEAR=2006
DGENRE=Jazz
TTITLE0=Exotica
TTITLE1=Coronation
TTITLE2=Quiet Village
TTITLE3=Forbidden Island
TTITLE4=Oro (God of Vengeance)
TTITLE5=La Pampa Y La Puna
TTITLE6=Flamingo
TTITLE7=Hypnotique
TTITLE8=Miserlou
TTITLE9=Caravan
TTITLE10=Escales
TTITLE11=My Little Grass Shack In Kealakekua, Hawaii
TTITLE12=Jungle Drums
TTITLE13=Taboo
TTITLE14=The Enchanted Isle
TTITLE15=Similau
TTITLE16=Ringo Oiwake
TTITLE17=Stardust
TTITLE18=Martin Denny On Martin Denny (Interview)
EXTD=YEAR: 2006
EXTT0=
EXTT1=
EXTT2=
EXTT3=
EXTT4=
EXTT5=
EXTT6=
EXTT7=
EXTT8=
EXTT9=
EXTT10=
EXTT11=
EXTT12=
EXTT13=
EXTT14=
EXTT15=
EXTT16=
EXTT17=
EXTT18=
PLAYORDER=
